HIERARCHY
ROOT Hips
{
	OFFSET 0.000000 89.005402 0.000000
	CHANNELS 6 Xposition Yposition Zposition Xrotation Yrotation Zrotation
	JOINT Spine
	{
		OFFSET 0.116900 10.681000 0.373400
		CHANNELS 3 Xrotation Yrotation Zrotation
		JOINT Spine1
		{
			OFFSET 0.000000 13.840401 0.053500
			CHANNELS 3 Xrotation Yrotation Zrotation
			JOINT Spine2
			{
				OFFSET 0.000000 14.712700 -0.366200
				CHANNELS 3 Xrotation Yrotation Zrotation
				JOINT Neck
				{
					OFFSET 0.000000 35.415497 -3.314200
					CHANNELS 3 Xrotation Yrotation Zrotation
					JOINT Head
					{
						OFFSET 0.000000 16.899200 1.218300
						CHANNELS 3 Xrotation Yrotation Zrotation
						JOINT HeadTop_End
						{
							OFFSET 0.000000 22.206207 2.192500
							CHANNELS 3 Xrotation Yrotation Zrotation
							End Site
							{
								OFFSET 0.000000 22.314178 0.000000
							}
						}
					}
				}
				JOINT LeftShoulder
				{
					OFFSET 12.896400 26.716293 -4.548400
					CHANNELS 3 Xrotation Yrotation Zrotation
					JOINT LeftArm
					{
						OFFSET 19.027000 -4.857010 -1.718400
						CHANNELS 3 Xrotation Yrotation Zrotation
						JOINT LeftForeArm
						{
							OFFSET 24.179897 0.000000 0.000000
							CHANNELS 3 Xrotation Yrotation Zrotation
							JOINT LeftHand
							{
								OFFSET 27.156403 0.000000 0.000000
								CHANNELS 3 Xrotation Yrotation Zrotation
								JOINT LeftHandIndex1
								{
									OFFSET 16.441200 0.000000 0.000000
									CHANNELS 3 Xrotation Yrotation Zrotation
									JOINT LeftHandIndex2
									{
										OFFSET 4.821899 0.000000 0.000000
										CHANNELS 3 Xrotation Yrotation Zrotation
										JOINT LeftHandIndex3
										{
											OFFSET 6.386497 0.000000 0.000000
											CHANNELS 3 Xrotation Yrotation Zrotation
											JOINT LeftHandIndex4
											{
												OFFSET 5.188988 0.000000 0.000000
												CHANNELS 3 Xrotation Yrotation Zrotation
												End Site
												{
													OFFSET -0.178703 5.185913 0.000177
												}
											}
										}
									}
								}
								JOINT LeftHandThumb1
								{
									OFFSET 6.534897 -5.032593 5.900300
									CHANNELS 3 Xrotation Yrotation Zrotation
									JOINT LeftHandThumb2
									{
										OFFSET 3.818176 -2.204422 2.204423
										CHANNELS 3 Xrotation Yrotation Zrotation
										JOINT LeftHandThumb3
										{
											OFFSET 3.252098 -1.877594 1.877601
											CHANNELS 3 Xrotation Yrotation Zrotation
											JOINT LeftHandThumb4
											{
												OFFSET 5.251778 -3.032120 3.032117
												CHANNELS 3 Xrotation Yrotation Zrotation
												End Site
												{
													OFFSET 0.000023 6.780014 0.000000
												}
											}
										}
									}
								}
							}
						}
					}
				}
				JOINT RightShoulder
				{
					OFFSET -12.896300 26.716293 -4.548400
					CHANNELS 3 Xrotation Yrotation Zrotation
					JOINT RightArm
					{
						OFFSET -19.027000 -4.857010 -1.718400
						CHANNELS 3 Xrotation Yrotation Zrotation
						JOINT RightForeArm
						{
							OFFSET -24.179897 0.000000 0.000000
							CHANNELS 3 Xrotation Yrotation Zrotation
							JOINT RightHand
							{
								OFFSET -27.156403 0.000000 0.000000
								CHANNELS 3 Xrotation Yrotation Zrotation
								JOINT RightHandThumb1
								{
									OFFSET -6.591202 -4.852203 5.988100
									CHANNELS 3 Xrotation Yrotation Zrotation
									JOINT RightHandThumb2
									{
										OFFSET -3.818176 -2.204422 2.204423
										CHANNELS 3 Xrotation Yrotation Zrotation
										JOINT RightHandThumb3
										{
											OFFSET -3.252098 -1.877594 1.877601
											CHANNELS 3 Xrotation Yrotation Zrotation
											JOINT RightHandThumb4
											{
												OFFSET -5.251778 -3.032120 3.032117
												CHANNELS 3 Xrotation Yrotation Zrotation
												End Site
												{
													OFFSET -0.000023 6.780014 0.000000
												}
											}
										}
									}
								}
								JOINT RightHandIndex1
								{
									OFFSET -16.029404 0.000000 0.000000
									CHANNELS 3 Xrotation Yrotation Zrotation
									JOINT RightHandIndex2
									{
										OFFSET -5.213303 0.000000 0.000000
										CHANNELS 3 Xrotation Yrotation Zrotation
										JOINT RightHandIndex3
										{
											OFFSET -6.386528 0.000000 0.000000
											CHANNELS 3 Xrotation Yrotation Zrotation
											JOINT RightHandIndex4
											{
												OFFSET -5.189026 0.000000 0.000000
												CHANNELS 3 Xrotation Yrotation Zrotation
												End Site
												{
													OFFSET 0.236702 5.183624 0.001972
												}
											}
										}
									}
								}
							}
						}
					}
				}
			}
		}
	}
	JOINT LeftUpLeg
	{
		OFFSET 14.073000 -7.904099 -1.463000
		CHANNELS 3 Xrotation Yrotation Zrotation
		JOINT LeftLeg
		{
			OFFSET -0.109806 -34.073280 4.093200
			CHANNELS 3 Xrotation Yrotation Zrotation
			JOINT LeftFoot
			{
				OFFSET 0.109806 -29.899420 -6.319000
				CHANNELS 3 Xrotation Yrotation Zrotation
				JOINT LeftToeBase
				{
					OFFSET 1.551100 -14.988700 20.535801
					CHANNELS 3 Xrotation Yrotation Zrotation
					JOINT LeftToe_End
					{
						OFFSET 0.221200 0.570800 13.248301
						CHANNELS 3 Xrotation Yrotation Zrotation
						End Site
						{
							OFFSET 0.000000 13.262435 0.000000
						}
					}
				}
			}
		}
	}
	JOINT RightUpLeg
	{
		OFFSET -13.839300 -7.904099 -1.463000
		CHANNELS 3 Xrotation Yrotation Zrotation
		JOINT RightLeg
		{
			OFFSET 0.109694 -34.073219 4.093300
			CHANNELS 3 Xrotation Yrotation Zrotation
			JOINT RightFoot
			{
				OFFSET -0.109694 -29.899384 -6.319200
				CHANNELS 3 Xrotation Yrotation Zrotation
				JOINT RightToeBase
				{
					OFFSET -1.551100 -14.988700 20.535801
					CHANNELS 3 Xrotation Yrotation Zrotation
					JOINT RightToe_End
					{
						OFFSET -0.221200 0.570900 13.248299
						CHANNELS 3 Xrotation Yrotation Zrotation
						End Site
						{
							OFFSET 0.000000 13.262440 0.000000
						}
					}
				}
			}
		}
	}
}
MOTION
Frames: 8
Frame Time: 0.033333
-4.779539 71.022751 143.200317 12.406498 -13.599616 -0.967283 -3.357210 11.592910 3.952477 4.175839 1.532761 -1.378715 4.202216 1.541658 -1.281926 -5.365318 -0.860394 0.495873 -23.179282 -1.543560 -6.572778 0.000001 -0.000000 -0.000000 0.710391 -4.136871 10.516771 -8.979501 4.494422 -54.024655 0.000005 -31.680808 0.000014 8.182245 -7.090228 4.777770 0.000131 0.043056 -0.356835 0.038789 0.731329 -6.071720 0.089952 1.111560 -9.252167 0.000003 0.000001 -0.000003 -1.860189 15.919523 8.011412 4.919652 20.227537 1.633429 -0.579467 1.575007 2.538726 0.000000 -0.000000 -0.000004 0.744627 7.519507 5.296820 -26.933220 8.005445 41.927588 -0.000013 43.952879 0.000009 -35.950899 -1.671478 -5.010584 -2.270748 -17.676914 -8.853651 5.876718 -22.798555 -1.141409 -1.273753 0.137281 -2.094892 0.000001 -0.000002 0.000000 0.002335 -0.180290 1.479564 0.090104 -1.118101 9.215638 0.072699 -1.004909 8.275535 0.000000 0.000000 -0.000000 -45.933681 9.479932 -3.369556 100.227514 13.044446 2.514002 4.264940 25.529628 18.011310 -22.444343 2.743738 -10.435172 0.000002 -0.000002 -0.000000 -36.347265 -13.325700 7.696078 65.211935 -10.196275 -4.223085 -41.033912 -4.560913 0.106163 -4.350841 0.000002 -0.000000 -0.000000 0.000001 0.000000 
-5.393560 71.455734 150.679413 14.108676 -15.364382 2.386009 -3.318048 15.889557 2.506329 4.874973 1.915968 -3.263326 4.952902 1.956292 -3.118049 -6.700092 -1.487519 0.795264 -25.730000 -4.555099 -6.059448 -0.000001 0.000000 -0.000000 0.352541 -2.254359 12.556588 0.846408 7.970977 -55.535558 -0.000005 -55.075657 -0.000005 15.851932 -5.779147 5.685139 0.000702 0.098500 -0.816151 0.045906 0.795370 -6.605835 0.097236 1.155401 -9.620501 -0.000003 -0.000000 0.000003 -1.860190 15.919523 8.011413 4.919652 20.227534 1.633429 -0.579466 1.575008 2.538723 -0.000001 -0.000001 -0.000001 0.760526 6.712296 3.654868 -28.780064 12.088998 42.626234 0.000036 53.776299 -0.000030 -37.162837 -1.164738 -4.410520 -2.270748 -17.676914 -8.853651 5.876717 -22.798550 -1.141407 -1.273752 0.137280 -2.094893 0.000001 -0.000002 -0.000000 0.015875 -0.470382 3.862742 0.112976 -1.250880 10.321538 0.095567 -1.151163 9.490661 -0.000000 -0.000000 0.000001 -58.056410 9.831656 -5.610702 95.679817 13.142221 3.337021 0.213545 23.387831 22.272852 -27.940304 10.488105 -25.434281 -0.000001 0.000001 0.000001 -30.608096 -10.638746 2.410346 64.392121 -9.383701 -3.044962 -45.657656 -2.828299 5.025393 -7.441468 -0.000007 0.000001 0.000000 0.000002 0.000000 
-5.846167 73.165871 158.509308 17.182738 -14.806187 7.677233 -5.196893 18.881795 -2.587790 5.552878 2.102611 -3.822954 5.636346 2.221897 -3.630343 -7.658793 -2.051898 0.634644 -26.457576 -7.648147 -6.085699 0.000000 -0.000000 -0.000000 -0.039196 -0.483913 14.180954 13.773045 9.891508 -58.025565 -0.000093 -83.534204 -0.000060 18.413428 -3.835868 4.871228 0.000458 0.079398 -0.658022 0.047502 0.809112 -6.720367 0.096386 1.150394 -9.578487 -0.000005 -0.000000 0.000003 -1.860188 15.919520 8.011413 4.919652 20.227537 1.633429 -0.579468 1.575010 2.538727 -0.000000 0.000001 -0.000000 0.667693 4.372764 -0.153001 -27.987484 14.067460 43.053295 0.000016 67.108569 -0.000017 -39.465069 -1.241745 -4.077727 -2.270747 -17.676912 -8.853649 5.876717 -22.798553 -1.141408 -1.273753 0.137276 -2.094889 -0.000000 0.000001 0.000000 0.032802 -0.675981 5.555789 0.135608 -1.369340 11.311689 0.111433 -1.242319 10.250161 0.000001 -0.000000 0.000001 -64.669925 10.419199 -7.993581 83.565698 12.748269 5.362541 -5.818111 19.438242 16.327610 -16.467970 3.879446 -16.541262 -0.000000 0.000001 -0.000000 -25.231911 -9.395998 -4.861087 59.956924 -6.493925 -2.678317 -46.685518 -3.325168 7.532722 -11.548435 -0.000006 0.000002 -0.000001 -0.000002 -0.000000 
-6.225069 75.075020 166.319305 20.209358 -13.097322 11.269571 -8.247681 20.896347 -7.453562 5.963523 2.226260 -3.128357 6.005212 2.419544 -2.898191 -7.975354 -2.466664 0.084424 -25.839750 -10.211893 -6.934295 0.000000 -0.000000 -0.000000 -0.320440 0.569277 15.784021 29.022802 7.974911 -59.690239 0.000069 -109.445879 0.000054 13.424729 -1.599475 3.523755 0.000016 0.015478 -0.128324 0.046684 0.802162 -6.662375 0.095984 1.147948 -9.557838 -0.000002 -0.000001 -0.000001 -1.860188 15.919521 8.011413 4.919651 20.227540 1.633430 -0.579468 1.575008 2.538725 -0.000001 -0.000003 -0.000001 0.261021 1.029106 -5.697206 -24.773465 15.707343 44.074961 -0.000216 79.684525 0.000169 -38.882105 -1.502966 -3.896744 -2.270751 -17.676914 -8.853651 5.876714 -22.798552 -1.141410 -1.273755 0.137277 -2.094888 0.000000 -0.000002 0.000001 0.042044 -0.765090 6.291140 0.155037 -1.462932 12.096514 0.114577 -1.259754 10.395770 0.000000 -0.000001 -0.000005 -66.222707 11.101435 -7.658618 64.777617 10.365717 7.035335 -5.778889 13.897758 5.964157 -5.147749 0.214268 -4.189102 -0.000001 0.000001 0.000000 -21.619369 -7.245353 -10.311912 58.345259 -5.998022 -3.146257 -39.825675 -5.194087 12.961472 -18.825610 0.000003 -0.000001 -0.000000 -0.000002 -0.000000 
-6.411497 76.262207 173.858261 22.278813 -11.245257 10.664493 -12.131036 21.512700 -7.878900 6.466390 2.256225 -2.520091 6.482997 2.475795 -2.255374 -8.031234 -2.815547 -0.005999 -25.081737 -11.785871 -8.054595 -0.000001 -0.000000 -0.000000 -0.377772 0.523542 17.631585 41.137300 2.472109 -56.996255 0.000041 -126.713000 0.000033 7.033680 -0.613402 3.075352 0.002400 0.181858 -1.507034 0.045048 0.787996 -6.544420 0.096346 1.150142 -9.576221 -0.000000 -0.000002 -0.000001 -1.860187 15.919518 8.011414 4.919650 20.227535 1.633427 -0.579467 1.575012 2.538724 0.000003 0.000000 0.000004 -0.196277 -1.321616 -8.991276 -20.688237 16.932167 44.986252 0.003667 90.810698 -0.003186 -33.035200 -1.685809 -3.764178 -2.270748 -17.676912 -8.853651 5.876716 -22.798557 -1.141406 -1.273749 0.137282 -2.094889 -0.000001 0.000001 0.000000 0.065370 -0.953151 7.846425 0.170107 -1.531640 12.674134 0.119610 -1.286808 10.621482 0.000002 0.000000 -0.000002 -66.170839 9.597133 -5.527058 47.798053 9.943864 6.077134 -3.948890 7.115109 -2.073008 -2.174804 0.000001 0.000001 -0.000000 0.000000 0.000000 -20.299869 -2.897030 -10.473422 61.004968 -7.111945 -5.929449 -17.947492 -5.802205 22.595434 -42.908696 -0.667250 1.449135 0.000000 -0.000002 -0.000000 
-6.524032 75.535416 179.962524 22.425582 -9.711816 6.958717 -15.391102 20.128313 -4.524660 7.644065 2.070457 -2.517404 7.673758 2.281987 -2.223864 -8.317378 -3.058347 0.810999 -25.263082 -11.765382 -8.760311 -0.000000 0.000000 -0.000001 -0.143277 -0.471112 17.881036 44.335550 -4.001101 -51.156819 -0.000011 -133.468385 -0.000005 8.643994 -0.396387 3.207594 0.008585 0.344456 -2.855486 0.041497 0.756233 -6.279503 0.095741 1.146680 -9.547234 -0.000000 -0.000000 0.000003 -1.860190 15.919523 8.011408 4.919650 20.227537 1.633429 -0.579467 1.575010 2.538724 -0.000001 -0.000001 -0.000001 0.017255 -0.641199 -6.205650 -17.613820 16.935512 44.892897 0.000015 101.992729 0.000019 -27.726919 -2.748257 -4.115120 -2.270749 -17.676912 -8.853652 5.876716 -22.798557 -1.141408 -1.273755 0.137280 -2.094890 0.000003 0.000002 -0.000001 0.095575 -1.151190 9.490925 0.179075 -1.570979 13.005482 0.127739 -1.329370 10.977340 0.000000 -0.000000 0.000001 -68.094404 6.491235 -3.469718 41.341964 11.112367 3.762907 -0.937923 2.499778 -2.501530 -2.311061 -0.000001 -0.000003 -0.000000 0.000000 0.000000 -15.251368 -0.475824 -4.549910 57.713015 -5.576400 -8.620799 13.056888 0.874874 25.789676 -67.428912 -5.817910 4.773232 0.000000 0.000001 -0.000000 
-6.789739 73.526970 184.936508 18.795414 -8.648601 3.665404 -13.247441 17.319101 -2.891668 8.546988 1.764246 -2.159401 8.575100 1.920225 -1.892492 -8.390123 -2.954968 1.677685 -26.325984 -10.251648 -8.294451 -0.000001 -0.000000 0.000000 0.290532 -2.052582 14.307593 37.273777 -10.531182 -46.240224 -0.000003 -131.986972 0.000005 12.839089 0.772067 2.612061 0.013307 0.428826 -3.555875 0.051085 0.838895 -6.969001 0.094592 1.139664 -9.488228 -0.000000 -0.000003 0.000002 -1.860189 15.919518 8.011414 4.919649 20.227535 1.633431 -0.579466 1.575007 2.538724 -0.000003 0.000001 0.000001 0.561348 3.095470 1.025347 -15.557948 17.297259 44.299996 -0.000029 112.950333 0.000042 -26.957879 -4.962990 -5.329493 -2.270751 -17.676915 -8.853655 5.876719 -22.798552 -1.141406 -1.273754 0.137280 -2.094890 -0.000001 0.000000 0.000001 0.099442 -1.174091 9.681516 0.201030 -1.663158 13.783598 0.134536 -1.363887 11.266117 0.000002 0.000000 0.000002 -68.251212 5.978331 -3.495725 46.563831 12.548870 3.019990 -1.745417 0.769055 2.743029 -1.797415 0.000003 -0.000000 -0.000000 -0.000000 0.000000 -12.052507 5.206224 -1.327750 74.468972 -4.030692 -5.172990 20.090042 4.398528 32.581198 -2.103750 0.000004 -0.000004 -0.000000 0.000000 0.000001 
-7.358448 72.173950 190.570267 11.593029 -7.450287 3.078375 -4.504837 13.825586 -6.422516 8.007690 1.451658 -0.472139 7.993282 1.562105 -0.300865 -7.654121 -2.402698 1.676409 -27.399234 -8.021992 -6.446263 -0.000001 -0.000000 -0.000000 0.606088 -3.563080 8.580081 22.801979 -17.480426 -42.906490 -0.000016 -126.045554 -0.000011 15.016436 1.878637 -1.595374 0.055248 0.872345 -7.248393 0.138675 1.377662 -11.494840 0.182861 1.579438 -13.207837 0.000001 0.000004 0.000003 -1.860188 15.919521 8.011406 4.919651 20.227535 1.633432 -0.579467 1.575005 2.538728 -0.000001 -0.000000 0.000000 0.676385 6.220267 6.049335 -12.351928 21.062902 44.155824 -0.000003 121.388649 -0.000007 -24.601887 -6.153978 -3.536568 -2.270750 -17.676915 -8.853654 5.876717 -22.798553 -1.141406 -1.273754 0.137278 -2.094886 -0.000000 -0.000001 0.000001 0.083317 -1.075514 8.861563 0.225624 -1.760264 14.606293 0.138504 -1.383667 11.431768 -0.000001 -0.000000 -0.000000 -60.161795 9.768099 -4.944622 53.983052 11.642630 4.920467 -6.820115 1.323863 2.977244 -0.474096 -0.000004 -0.000001 -0.000000 -0.000000 -0.000000 -13.539361 10.358113 -1.350029 103.852685 3.655823 1.028528 10.989100 2.579366 34.011381 5.790587 0.000003 0.000015 0.000000 0.000000 0.000001 
